%TF.GenerationSoftware,KiCad,Pcbnew,9.0.5*%
%TF.CreationDate,2026-06-27T07:22:50+01:00*%
%TF.ProjectId,USB3-04,55534233-2d30-4342-9e6b-696361645f70,rev?*%
%TF.SameCoordinates,Original*%
%TF.FileFunction,Legend,Top*%
%TF.FilePolarity,Positive*%
%FSLAX46Y46*%
G04 Gerber Fmt 4.6, Leading zero omitted, Abs format (unit mm)*
G04 Created by KiCad (PCBNEW 9.0.5) date 2026-06-27 07:22:50*
%MOMM*%
%LPD*%
G01*
G04 APERTURE LIST*
%ADD10C,0.100000*%
%ADD11C,0.120000*%
G04 APERTURE END LIST*
D10*
X154508646Y-109172419D02*
X155127693Y-109172419D01*
X155127693Y-109172419D02*
X154794360Y-109553371D01*
X154794360Y-109553371D02*
X154937217Y-109553371D01*
X154937217Y-109553371D02*
X155032455Y-109600990D01*
X155032455Y-109600990D02*
X155080074Y-109648609D01*
X155080074Y-109648609D02*
X155127693Y-109743847D01*
X155127693Y-109743847D02*
X155127693Y-109981942D01*
X155127693Y-109981942D02*
X155080074Y-110077180D01*
X155080074Y-110077180D02*
X155032455Y-110124800D01*
X155032455Y-110124800D02*
X154937217Y-110172419D01*
X154937217Y-110172419D02*
X154651503Y-110172419D01*
X154651503Y-110172419D02*
X154556265Y-110124800D01*
X154556265Y-110124800D02*
X154508646Y-110077180D01*
X155461027Y-109505752D02*
X155699122Y-110172419D01*
X155699122Y-110172419D02*
X155937217Y-109505752D01*
X156222932Y-109172419D02*
X156841979Y-109172419D01*
X156841979Y-109172419D02*
X156508646Y-109553371D01*
X156508646Y-109553371D02*
X156651503Y-109553371D01*
X156651503Y-109553371D02*
X156746741Y-109600990D01*
X156746741Y-109600990D02*
X156794360Y-109648609D01*
X156794360Y-109648609D02*
X156841979Y-109743847D01*
X156841979Y-109743847D02*
X156841979Y-109981942D01*
X156841979Y-109981942D02*
X156794360Y-110077180D01*
X156794360Y-110077180D02*
X156746741Y-110124800D01*
X156746741Y-110124800D02*
X156651503Y-110172419D01*
X156651503Y-110172419D02*
X156365789Y-110172419D01*
X156365789Y-110172419D02*
X156270551Y-110124800D01*
X156270551Y-110124800D02*
X156222932Y-110077180D01*
X165772419Y-111219925D02*
X165772419Y-111696115D01*
X165772419Y-111696115D02*
X166248609Y-111743734D01*
X166248609Y-111743734D02*
X166200990Y-111696115D01*
X166200990Y-111696115D02*
X166153371Y-111600877D01*
X166153371Y-111600877D02*
X166153371Y-111362782D01*
X166153371Y-111362782D02*
X166200990Y-111267544D01*
X166200990Y-111267544D02*
X166248609Y-111219925D01*
X166248609Y-111219925D02*
X166343847Y-111172306D01*
X166343847Y-111172306D02*
X166581942Y-111172306D01*
X166581942Y-111172306D02*
X166677180Y-111219925D01*
X166677180Y-111219925D02*
X166724800Y-111267544D01*
X166724800Y-111267544D02*
X166772419Y-111362782D01*
X166772419Y-111362782D02*
X166772419Y-111600877D01*
X166772419Y-111600877D02*
X166724800Y-111696115D01*
X166724800Y-111696115D02*
X166677180Y-111743734D01*
X165772419Y-110886591D02*
X166772419Y-110553258D01*
X166772419Y-110553258D02*
X165772419Y-110219925D01*
X161372419Y-111996115D02*
X160372419Y-111996115D01*
X160372419Y-111996115D02*
X160372419Y-111758020D01*
X160372419Y-111758020D02*
X160420038Y-111615163D01*
X160420038Y-111615163D02*
X160515276Y-111519925D01*
X160515276Y-111519925D02*
X160610514Y-111472306D01*
X160610514Y-111472306D02*
X160800990Y-111424687D01*
X160800990Y-111424687D02*
X160943847Y-111424687D01*
X160943847Y-111424687D02*
X161134323Y-111472306D01*
X161134323Y-111472306D02*
X161229561Y-111519925D01*
X161229561Y-111519925D02*
X161324800Y-111615163D01*
X161324800Y-111615163D02*
X161372419Y-111758020D01*
X161372419Y-111758020D02*
X161372419Y-111996115D01*
X160991466Y-110996115D02*
X160991466Y-110234211D01*
X161372419Y-110615163D02*
X160610514Y-110615163D01*
X158120038Y-109472306D02*
X158072419Y-109567544D01*
X158072419Y-109567544D02*
X158072419Y-109710401D01*
X158072419Y-109710401D02*
X158120038Y-109853258D01*
X158120038Y-109853258D02*
X158215276Y-109948496D01*
X158215276Y-109948496D02*
X158310514Y-109996115D01*
X158310514Y-109996115D02*
X158500990Y-110043734D01*
X158500990Y-110043734D02*
X158643847Y-110043734D01*
X158643847Y-110043734D02*
X158834323Y-109996115D01*
X158834323Y-109996115D02*
X158929561Y-109948496D01*
X158929561Y-109948496D02*
X159024800Y-109853258D01*
X159024800Y-109853258D02*
X159072419Y-109710401D01*
X159072419Y-109710401D02*
X159072419Y-109615163D01*
X159072419Y-109615163D02*
X159024800Y-109472306D01*
X159024800Y-109472306D02*
X158977180Y-109424687D01*
X158977180Y-109424687D02*
X158643847Y-109424687D01*
X158643847Y-109424687D02*
X158643847Y-109615163D01*
X164072419Y-111896115D02*
X163072419Y-111896115D01*
X163072419Y-111896115D02*
X163072419Y-111658020D01*
X163072419Y-111658020D02*
X163120038Y-111515163D01*
X163120038Y-111515163D02*
X163215276Y-111419925D01*
X163215276Y-111419925D02*
X163310514Y-111372306D01*
X163310514Y-111372306D02*
X163500990Y-111324687D01*
X163500990Y-111324687D02*
X163643847Y-111324687D01*
X163643847Y-111324687D02*
X163834323Y-111372306D01*
X163834323Y-111372306D02*
X163929561Y-111419925D01*
X163929561Y-111419925D02*
X164024800Y-111515163D01*
X164024800Y-111515163D02*
X164072419Y-111658020D01*
X164072419Y-111658020D02*
X164072419Y-111896115D01*
X163691466Y-110896115D02*
X163691466Y-110134211D01*
D11*
%TO.C,C1*%
X165338747Y-123865000D02*
X165861253Y-123865000D01*
X165338747Y-125335000D02*
X165861253Y-125335000D01*
%TO.C,C4*%
X155361253Y-119665000D02*
X154838747Y-119665000D01*
X155361253Y-121135000D02*
X154838747Y-121135000D01*
%TO.C,C3*%
X158811252Y-119665000D02*
X158288746Y-119665000D01*
X158811252Y-121135000D02*
X158288746Y-121135000D01*
%TO.C,U1*%
X153689999Y-116650000D02*
X153690000Y-112890000D01*
X153690000Y-112890000D02*
X154949999Y-112890000D01*
X160510000Y-112890000D02*
X159250001Y-112890000D01*
X160510001Y-116650000D02*
X160510000Y-112890000D01*
X153790000Y-117930000D02*
X153460000Y-118170000D01*
X153460000Y-117690000D01*
X153790000Y-117930000D01*
G36*
X153790000Y-117930000D02*
G01*
X153460000Y-118170000D01*
X153460000Y-117690000D01*
X153790000Y-117930000D01*
G37*
%TO.C,J1*%
X157430000Y-126120000D02*
X166930000Y-126120000D01*
X157430000Y-128620000D02*
X157430000Y-131320000D01*
X157430000Y-134480000D02*
X157430000Y-134270000D01*
X159055000Y-125970000D02*
X159280000Y-125970000D01*
X166930000Y-131370000D02*
X166930000Y-128645000D01*
X166930000Y-134470000D02*
X166930000Y-134245000D01*
%TO.C,J2*%
X154519917Y-106767791D02*
X167439917Y-106767791D01*
X154519918Y-104007791D02*
X154519917Y-106767791D01*
X154629917Y-109427791D02*
X154629916Y-108157791D01*
X155469917Y-106997791D02*
X155469918Y-106767791D01*
X155899917Y-109427792D02*
X154629917Y-109427791D01*
X156329917Y-106997791D02*
X156329916Y-106767791D01*
X157169917Y-106767791D02*
X157169917Y-104007790D01*
X158009917Y-98007791D02*
X158869917Y-98007791D01*
X158009917Y-104007791D02*
X158009917Y-98007791D01*
X158009917Y-107080433D02*
X158009917Y-106767791D01*
X158869917Y-98007791D02*
X158869917Y-104007791D01*
X158869917Y-107080433D02*
X158869918Y-106767791D01*
X159709917Y-106767791D02*
X159709917Y-104007791D01*
X160549917Y-98007791D02*
X161409917Y-98007791D01*
X160549917Y-104007790D02*
X160549917Y-98007791D01*
X160549917Y-107080433D02*
X160549917Y-106767791D01*
X161409917Y-98007791D02*
X161409917Y-104007790D01*
X161409917Y-107080433D02*
X161409917Y-106767791D01*
X162249917Y-106767792D02*
X162249917Y-104007791D01*
X163089917Y-98007791D02*
X163949917Y-98007791D01*
X163089917Y-104007791D02*
X163089917Y-98007791D01*
X163089917Y-107080433D02*
X163089917Y-106767791D01*
X163949917Y-98007791D02*
X163949917Y-104007790D01*
X163949917Y-107080433D02*
X163949917Y-106767791D01*
X164789917Y-106767791D02*
X164789917Y-104007791D01*
X165629917Y-98007791D02*
X166489917Y-98007791D01*
X165629917Y-104007791D02*
X165629917Y-98007791D01*
X165629917Y-107080433D02*
X165629917Y-106767792D01*
X166489917Y-98007791D02*
X166489917Y-104007791D01*
X166489917Y-107080433D02*
X166489917Y-106767791D01*
X167439917Y-104007791D02*
X154519918Y-104007791D01*
X167439917Y-106767791D02*
X167439917Y-104007791D01*
X156329917Y-104007791D02*
X155469917Y-104007791D01*
X155469917Y-98007791D01*
X156329917Y-98007791D01*
X156329917Y-104007791D01*
G36*
X156329917Y-104007791D02*
G01*
X155469917Y-104007791D01*
X155469917Y-98007791D01*
X156329917Y-98007791D01*
X156329917Y-104007791D01*
G37*
%TO.C,R2*%
X159156439Y-123902585D02*
X159156439Y-123380079D01*
X160626439Y-123902585D02*
X160626439Y-123380079D01*
%TO.C,C2*%
X165338748Y-121865000D02*
X165861252Y-121865000D01*
X165338748Y-123335000D02*
X165861252Y-123335000D01*
%TO.C,R1*%
X157165000Y-123911254D02*
X157165000Y-123388748D01*
X158635000Y-123911254D02*
X158635000Y-123388748D01*
%TD*%
M02*
