%TF.GenerationSoftware,KiCad,Pcbnew,9.0.5*%
%TF.CreationDate,2026-06-27T07:22:50+01:00*%
%TF.ProjectId,USB3-04,55534233-2d30-4342-9e6b-696361645f70,rev?*%
%TF.SameCoordinates,Original*%
%TF.FileFunction,Copper,L2,Bot*%
%TF.FilePolarity,Positive*%
%FSLAX46Y46*%
G04 Gerber Fmt 4.6, Leading zero omitted, Abs format (unit mm)*
G04 Created by KiCad (PCBNEW 9.0.5) date 2026-06-27 07:22:50*
%MOMM*%
%LPD*%
G01*
G04 APERTURE LIST*
%TA.AperFunction,HeatsinkPad*%
%ADD10O,1.100000X2.100000*%
%TD*%
%TA.AperFunction,HeatsinkPad*%
%ADD11O,1.100000X2.600000*%
%TD*%
%TA.AperFunction,ComponentPad*%
%ADD12R,1.700000X1.700000*%
%TD*%
%TA.AperFunction,ComponentPad*%
%ADD13C,1.700000*%
%TD*%
%TA.AperFunction,ViaPad*%
%ADD14C,0.400000*%
%TD*%
%TA.AperFunction,ViaPad*%
%ADD15C,0.600000*%
%TD*%
%TA.AperFunction,Conductor*%
%ADD16C,0.200000*%
%TD*%
%TA.AperFunction,Conductor*%
%ADD17C,0.100000*%
%TD*%
G04 APERTURE END LIST*
D10*
%TO.P,J1,S1,SHIELD*%
%TO.N,GND*%
X157860000Y-127440000D03*
D11*
X157860000Y-132800000D03*
D10*
X166500000Y-127440000D03*
D11*
X166500000Y-132800000D03*
%TD*%
D12*
%TO.P,J2,1,Pin_1*%
%TO.N,+3.3V*%
X155899917Y-108157791D03*
D13*
%TO.P,J2,2,Pin_2*%
%TO.N,GND*%
X158439917Y-108157791D03*
%TO.P,J2,3,Pin_3*%
%TO.N,Net-(J2-Pin_3)*%
X160979916Y-108157791D03*
%TO.P,J2,4,Pin_4*%
%TO.N,Net-(J2-Pin_4)*%
X163519917Y-108157791D03*
%TO.P,J2,5,Pin_5*%
%TO.N,+5V*%
X166059917Y-108157791D03*
%TD*%
D14*
%TO.N,Net-(J2-Pin_4)*%
X161930000Y-128330000D03*
D15*
X162680000Y-126000000D03*
%TO.N,GND*%
X156500000Y-113700000D03*
X163400000Y-122600000D03*
X161400000Y-122600000D03*
X157600000Y-120400000D03*
%TO.N,Net-(J2-Pin_3)*%
X161680000Y-126000000D03*
D14*
X162429999Y-127786350D03*
X161680000Y-127030000D03*
%TO.N,Net-(J1-CC2)*%
X162930000Y-128330000D03*
X159900000Y-125400000D03*
D15*
%TO.N,+5V*%
X166550000Y-120200000D03*
X160800000Y-120900000D03*
D14*
X165900000Y-125800000D03*
X164200000Y-126300000D03*
%TD*%
D16*
%TO.N,GND*%
X161400000Y-122600000D02*
X161400000Y-121500000D01*
X163400000Y-122600000D02*
X161400000Y-122600000D01*
X161400000Y-121500000D02*
X158700000Y-121500000D01*
X156500000Y-113700000D02*
X156600000Y-113600000D01*
X156600000Y-113600000D02*
X156600000Y-109997708D01*
X166500000Y-132800000D02*
X157860000Y-132800000D01*
X158700000Y-121500000D02*
X157600000Y-120400000D01*
X161400000Y-121500000D02*
X161400000Y-111117874D01*
X157860000Y-127440000D02*
X157860000Y-132800000D01*
X161400000Y-111117874D02*
X158439917Y-108157791D01*
X156600000Y-109997708D02*
X158439917Y-108157791D01*
%TO.N,Net-(J2-Pin_3)*%
X162429999Y-127779999D02*
X161680000Y-127030000D01*
X162429999Y-127786350D02*
X162429999Y-127779999D01*
D17*
%TO.N,Net-(J1-CC2)*%
X162479000Y-128781000D02*
X161743189Y-128781000D01*
X161743189Y-128781000D02*
X159900000Y-126937811D01*
X162930000Y-128330000D02*
X162479000Y-128781000D01*
X159900000Y-126937811D02*
X159900000Y-125400000D01*
D16*
%TO.N,+5V*%
X156999000Y-120648943D02*
X159551057Y-123201000D01*
X166550000Y-120299943D02*
X166550000Y-120200000D01*
X163648943Y-123201000D02*
X166550000Y-120299943D01*
X159551057Y-123201000D02*
X163648943Y-123201000D01*
X157351057Y-119799000D02*
X156999000Y-120151057D01*
X159699000Y-119799000D02*
X157351057Y-119799000D01*
X160800000Y-120900000D02*
X159699000Y-119799000D01*
X156999000Y-120151057D02*
X156999000Y-120648943D01*
D17*
X165400000Y-126300000D02*
X164200000Y-126300000D01*
X165900000Y-125800000D02*
X165400000Y-126300000D01*
%TD*%
M02*
