M48
; DRILL file {KiCad 9.0.5} date 2026-06-27T07:24:10+0100
; FORMAT={-:-/ absolute / metric / decimal}
; #@! TF.CreationDate,2026-06-27T07:24:10+01:00
; #@! TF.GenerationSoftware,Kicad,Pcbnew,9.0.5
; #@! TF.FileFunction,Plated,1,2,PTH
FMAT,2
METRIC
; #@! TA.AperFunction,Plated,PTH,ViaDrill
T1C0.200
; #@! TA.AperFunction,Plated,PTH,ViaDrill
T2C0.300
; #@! TA.AperFunction,Plated,PTH,ComponentDrill
T3C0.600
; #@! TA.AperFunction,Plated,PTH,ComponentDrill
T4C1.000
%
G90
G05
T1
X159.9Y-125.4
X161.68Y-127.03
X161.93Y-128.33
X162.43Y-127.786
X162.93Y-128.33
X164.2Y-126.3
X165.9Y-125.8
T2
X156.5Y-113.7
X157.6Y-120.4
X160.8Y-120.9
X161.4Y-122.6
X161.68Y-126.0
X162.68Y-126.0
X163.4Y-122.6
X166.55Y-120.2
T4
X155.9Y-108.158
X158.44Y-108.158
X160.98Y-108.158
X163.52Y-108.158
X166.06Y-108.158
T3
G00X157.86Y-126.94
M15
G01X157.86Y-127.94
M16
G05
G00X157.86Y-132.05
M15
G01X157.86Y-133.55
M16
G05
G00X166.5Y-126.94
M15
G01X166.5Y-127.94
M16
G05
G00X166.5Y-132.05
M15
G01X166.5Y-133.55
M16
G05
M30
