%TF.GenerationSoftware,KiCad,Pcbnew,9.0.5*%
%TF.CreationDate,2026-06-27T07:22:50+01:00*%
%TF.ProjectId,USB3-04,55534233-2d30-4342-9e6b-696361645f70,rev?*%
%TF.SameCoordinates,Original*%
%TF.FileFunction,Copper,L1,Top*%
%TF.FilePolarity,Positive*%
%FSLAX46Y46*%
G04 Gerber Fmt 4.6, Leading zero omitted, Abs format (unit mm)*
G04 Created by KiCad (PCBNEW 9.0.5) date 2026-06-27 07:22:50*
%MOMM*%
%LPD*%
G01*
G04 APERTURE LIST*
G04 Aperture macros list*
%AMRoundRect*
0 Rectangle with rounded corners*
0 $1 Rounding radius*
0 $2 $3 $4 $5 $6 $7 $8 $9 X,Y pos of 4 corners*
0 Add a 4 corners polygon primitive as box body*
4,1,4,$2,$3,$4,$5,$6,$7,$8,$9,$2,$3,0*
0 Add four circle primitives for the rounded corners*
1,1,$1+$1,$2,$3*
1,1,$1+$1,$4,$5*
1,1,$1+$1,$6,$7*
1,1,$1+$1,$8,$9*
0 Add four rect primitives between the rounded corners*
20,1,$1+$1,$2,$3,$4,$5,0*
20,1,$1+$1,$4,$5,$6,$7,0*
20,1,$1+$1,$6,$7,$8,$9,0*
20,1,$1+$1,$8,$9,$2,$3,0*%
G04 Aperture macros list end*
%TA.AperFunction,SMDPad,CuDef*%
%ADD10RoundRect,0.250000X-0.250000X-0.475000X0.250000X-0.475000X0.250000X0.475000X-0.250000X0.475000X0*%
%TD*%
%TA.AperFunction,SMDPad,CuDef*%
%ADD11RoundRect,0.250000X0.250000X0.475000X-0.250000X0.475000X-0.250000X-0.475000X0.250000X-0.475000X0*%
%TD*%
%TA.AperFunction,SMDPad,CuDef*%
%ADD12RoundRect,0.375000X0.375000X-0.625000X0.375000X0.625000X-0.375000X0.625000X-0.375000X-0.625000X0*%
%TD*%
%TA.AperFunction,SMDPad,CuDef*%
%ADD13RoundRect,0.500000X1.400000X-0.500000X1.400000X0.500000X-1.400000X0.500000X-1.400000X-0.500000X0*%
%TD*%
%TA.AperFunction,SMDPad,CuDef*%
%ADD14R,0.300000X0.700000*%
%TD*%
%TA.AperFunction,SMDPad,CuDef*%
%ADD15R,1.000000X0.700000*%
%TD*%
%TA.AperFunction,HeatsinkPad*%
%ADD16O,1.100000X2.100000*%
%TD*%
%TA.AperFunction,HeatsinkPad*%
%ADD17O,1.100000X2.600000*%
%TD*%
%TA.AperFunction,ComponentPad*%
%ADD18R,1.700000X1.700000*%
%TD*%
%TA.AperFunction,ComponentPad*%
%ADD19C,1.700000*%
%TD*%
%TA.AperFunction,SMDPad,CuDef*%
%ADD20RoundRect,0.250000X0.475000X-0.250000X0.475000X0.250000X-0.475000X0.250000X-0.475000X-0.250000X0*%
%TD*%
%TA.AperFunction,ViaPad*%
%ADD21C,0.400000*%
%TD*%
%TA.AperFunction,ViaPad*%
%ADD22C,0.600000*%
%TD*%
%TA.AperFunction,Conductor*%
%ADD23C,0.200000*%
%TD*%
%TA.AperFunction,Conductor*%
%ADD24C,0.100000*%
%TD*%
G04 APERTURE END LIST*
D10*
%TO.P,C1,1*%
%TO.N,GND*%
X164650001Y-124600000D03*
%TO.P,C1,2*%
%TO.N,+5V*%
X166549999Y-124600000D03*
%TD*%
D11*
%TO.P,C4,1*%
%TO.N,+3.3V*%
X156049999Y-120400000D03*
%TO.P,C4,2*%
%TO.N,GND*%
X154150001Y-120400000D03*
%TD*%
%TO.P,C3,1*%
%TO.N,+5V*%
X159499998Y-120400000D03*
%TO.P,C3,2*%
%TO.N,GND*%
X157600000Y-120400000D03*
%TD*%
D12*
%TO.P,U1,1,GND*%
%TO.N,GND*%
X154800000Y-117950000D03*
%TO.P,U1,2,VO*%
%TO.N,+3.3V*%
X157100000Y-117949999D03*
D13*
X157100000Y-111650001D03*
D12*
%TO.P,U1,3,VI*%
%TO.N,+5V*%
X159400000Y-117950000D03*
%TD*%
D14*
%TO.P,J1,A1,GND*%
%TO.N,GND*%
X159180000Y-127030000D03*
%TO.P,J1,A2,TX1+*%
%TO.N,unconnected-(J1-TX1+-PadA2)*%
X159680000Y-127030000D03*
%TO.P,J1,A3,TX1-*%
%TO.N,unconnected-(J1-TX1--PadA3)*%
X160180000Y-127030000D03*
%TO.P,J1,A4,VBUS*%
%TO.N,+5V*%
X160680000Y-127030000D03*
%TO.P,J1,A5,CC1*%
%TO.N,Net-(J1-CC1)*%
X161180000Y-127030000D03*
%TO.P,J1,A6,D+*%
%TO.N,Net-(J2-Pin_3)*%
X161680000Y-127030000D03*
%TO.P,J1,A7,D-*%
%TO.N,Net-(J2-Pin_4)*%
X162680000Y-127030000D03*
%TO.P,J1,A8,SBU1*%
%TO.N,unconnected-(J1-SBU1-PadA8)*%
X163180000Y-127030000D03*
%TO.P,J1,A9,VBUS*%
%TO.N,+5V*%
X163680000Y-127030000D03*
%TO.P,J1,A10,RX2-*%
%TO.N,unconnected-(J1-RX2--PadA10)*%
X164180000Y-127030000D03*
%TO.P,J1,A11,RX2+*%
%TO.N,unconnected-(J1-RX2+-PadA11)*%
X164680000Y-127030000D03*
%TO.P,J1,A12,GND*%
%TO.N,GND*%
X165180000Y-127030000D03*
D15*
%TO.P,J1,B1,GND*%
X165280000Y-128330000D03*
D14*
%TO.P,J1,B2,TX2+*%
%TO.N,unconnected-(J1-TX2+-PadB2)*%
X164430000Y-128330000D03*
%TO.P,J1,B3,TX2-*%
%TO.N,unconnected-(J1-TX2--PadB3)*%
X163930000Y-128330000D03*
%TO.P,J1,B4,VBUS*%
%TO.N,+5V*%
X163430000Y-128330000D03*
%TO.P,J1,B5,CC2*%
%TO.N,Net-(J1-CC2)*%
X162930000Y-128330000D03*
%TO.P,J1,B6,D+*%
%TO.N,Net-(J2-Pin_3)*%
X162430000Y-128330000D03*
%TO.P,J1,B7,D-*%
%TO.N,Net-(J2-Pin_4)*%
X161930000Y-128330000D03*
%TO.P,J1,B8,SBU2*%
%TO.N,unconnected-(J1-SBU2-PadB8)*%
X161430000Y-128330000D03*
%TO.P,J1,B9,VBUS*%
%TO.N,+5V*%
X160930000Y-128330000D03*
%TO.P,J1,B10,RX1-*%
%TO.N,unconnected-(J1-RX1--PadB10)*%
X160430000Y-128330000D03*
%TO.P,J1,B11,RX1+*%
%TO.N,unconnected-(J1-RX1+-PadB11)*%
X159930000Y-128330000D03*
D15*
%TO.P,J1,B12,GND*%
%TO.N,GND*%
X159080000Y-128330000D03*
D16*
%TO.P,J1,S1,SHIELD*%
X157860000Y-127440000D03*
D17*
X157860000Y-132800000D03*
D16*
X166500000Y-127440000D03*
D17*
X166500000Y-132800000D03*
%TD*%
D18*
%TO.P,J2,1,Pin_1*%
%TO.N,+3.3V*%
X155899917Y-108157791D03*
D19*
%TO.P,J2,2,Pin_2*%
%TO.N,GND*%
X158439917Y-108157791D03*
%TO.P,J2,3,Pin_3*%
%TO.N,Net-(J2-Pin_3)*%
X160979916Y-108157791D03*
%TO.P,J2,4,Pin_4*%
%TO.N,Net-(J2-Pin_4)*%
X163519917Y-108157791D03*
%TO.P,J2,5,Pin_5*%
%TO.N,+5V*%
X166059917Y-108157791D03*
%TD*%
D20*
%TO.P,R2,1*%
%TO.N,Net-(J1-CC2)*%
X159891439Y-124591331D03*
%TO.P,R2,2*%
%TO.N,GND*%
X159891439Y-122691333D03*
%TD*%
D10*
%TO.P,C2,1*%
%TO.N,GND*%
X164650000Y-122600000D03*
%TO.P,C2,2*%
%TO.N,+5V*%
X166550000Y-122600000D03*
%TD*%
D20*
%TO.P,R1,1*%
%TO.N,Net-(J1-CC1)*%
X157900000Y-124600000D03*
%TO.P,R1,2*%
%TO.N,GND*%
X157900000Y-122700002D03*
%TD*%
D21*
%TO.N,Net-(J2-Pin_4)*%
X161930000Y-128330000D03*
D22*
X162680000Y-126000000D03*
%TO.N,GND*%
X156500000Y-113700000D03*
X163400000Y-122600000D03*
X161400000Y-122600000D03*
X157600000Y-120400000D03*
%TO.N,Net-(J2-Pin_3)*%
X161680000Y-126000000D03*
D21*
X162429999Y-127786350D03*
X161680000Y-127030000D03*
%TO.N,Net-(J1-CC2)*%
X162930000Y-128330000D03*
X159900000Y-125400000D03*
D22*
%TO.N,+5V*%
X166550000Y-120200000D03*
X160800000Y-120900000D03*
D21*
X165900000Y-125800000D03*
X164200000Y-126300000D03*
%TD*%
D23*
%TO.N,Net-(J2-Pin_4)*%
X161930000Y-127577828D02*
X162680000Y-126827828D01*
X162680000Y-126827828D02*
X162680000Y-126000000D01*
X162700000Y-115154999D02*
X162700000Y-125980000D01*
X163519917Y-108157791D02*
X163519917Y-114335082D01*
X161930000Y-128330000D02*
X161930000Y-127577828D01*
X162700000Y-125980000D02*
X162680000Y-126000000D01*
X163519917Y-114335082D02*
X162700000Y-115154999D01*
%TO.N,GND*%
X159882770Y-122700002D02*
X159891439Y-122691333D01*
X157900000Y-122700002D02*
X159882770Y-122700002D01*
X165590000Y-127440000D02*
X165180000Y-127030000D01*
X164650001Y-124600000D02*
X165180000Y-125129999D01*
X159080000Y-128330000D02*
X159080000Y-127130000D01*
X159080000Y-127130000D02*
X159180000Y-127030000D01*
X157860000Y-127440000D02*
X158770000Y-127440000D01*
X166500000Y-127440000D02*
X165590000Y-127440000D01*
X164650000Y-122600000D02*
X164650001Y-124600000D01*
X154800000Y-117950000D02*
X154800000Y-115400000D01*
X165590000Y-127440000D02*
X165280000Y-127750000D01*
X154800000Y-117950000D02*
X154800000Y-119750001D01*
X158770000Y-127440000D02*
X159180000Y-127030000D01*
X165180000Y-125129999D02*
X165180000Y-127030000D01*
X154800000Y-119750001D02*
X154150001Y-120400000D01*
X166500000Y-129550000D02*
X165280000Y-128330000D01*
X154800000Y-115400000D02*
X156500000Y-113700000D01*
X159982772Y-122600000D02*
X159891439Y-122691333D01*
X161400000Y-122600000D02*
X159982772Y-122600000D01*
X166500000Y-132800000D02*
X166500000Y-129550000D01*
X165280000Y-127750000D02*
X165280000Y-128330000D01*
X164650000Y-122600000D02*
X163400000Y-122600000D01*
D24*
%TO.N,Net-(J1-CC1)*%
X159151000Y-125851000D02*
X157900000Y-124600000D01*
X161180000Y-126728000D02*
X160303000Y-125851000D01*
X160303000Y-125851000D02*
X159151000Y-125851000D01*
X161180000Y-127030000D02*
X161180000Y-126728000D01*
D23*
%TO.N,Net-(J2-Pin_3)*%
X160979916Y-108157791D02*
X160979916Y-114335084D01*
X162429999Y-128329999D02*
X162430000Y-128330000D01*
X162000000Y-125680000D02*
X161680000Y-126000000D01*
X162429999Y-127786350D02*
X162429999Y-128329999D01*
X160979916Y-114335084D02*
X160930000Y-114385000D01*
X161680000Y-126000000D02*
X161680000Y-127030000D01*
X162000000Y-120800000D02*
X162000000Y-125680000D01*
X160930000Y-114385000D02*
X160930000Y-119730000D01*
X160930000Y-119730000D02*
X162000000Y-120800000D01*
D24*
%TO.N,Net-(J1-CC2)*%
X159900000Y-125400000D02*
X159900000Y-124599892D01*
X159900000Y-124599892D02*
X159891439Y-124591331D01*
D23*
%TO.N,+5V*%
X159499998Y-118049998D02*
X159400000Y-117950000D01*
D24*
X160930000Y-128330000D02*
X160930000Y-128780000D01*
D23*
X166059917Y-108157791D02*
X166550000Y-108647874D01*
X166549999Y-124600000D02*
X166549999Y-125150001D01*
D24*
X160680000Y-127480000D02*
X160930000Y-127730000D01*
X164000000Y-126300000D02*
X163680000Y-126620000D01*
X163379000Y-128831000D02*
X163430000Y-128780000D01*
X163430000Y-127730000D02*
X163430000Y-128330000D01*
D23*
X166550000Y-108647874D02*
X166550000Y-120299943D01*
D24*
X163430000Y-128780000D02*
X163430000Y-128330000D01*
X160981000Y-128831000D02*
X163379000Y-128831000D01*
X163680000Y-127480000D02*
X163430000Y-127730000D01*
D23*
X159499998Y-120400000D02*
X160300000Y-120400000D01*
X160300000Y-120400000D02*
X160800000Y-120900000D01*
D24*
X163680000Y-127030000D02*
X163680000Y-127480000D01*
X163680000Y-126620000D02*
X163680000Y-127030000D01*
X160930000Y-128780000D02*
X160981000Y-128831000D01*
D23*
X166549999Y-124600000D02*
X166550000Y-122600000D01*
D24*
X164200000Y-126300000D02*
X164000000Y-126300000D01*
X160680000Y-127030000D02*
X160680000Y-127480000D01*
D23*
X159499998Y-120400000D02*
X159499998Y-118049998D01*
X166550000Y-120299943D02*
X166550000Y-122600000D01*
D24*
X160930000Y-127730000D02*
X160930000Y-128330000D01*
D23*
X166549999Y-125150001D02*
X165900000Y-125800000D01*
%TO.N,+3.3V*%
X155899917Y-108157791D02*
X157100000Y-109357874D01*
X157100000Y-119349999D02*
X156049999Y-120400000D01*
X157100000Y-109357874D02*
X157100000Y-111650001D01*
X157100000Y-111650001D02*
X157100000Y-117949999D01*
X157100000Y-117949999D02*
X157100000Y-119349999D01*
%TD*%
M02*
